HIERARCHY
ROOT Hips
{
 OFFSET 0.000000 0.000000 0.000000
 CHANNELS 6 Xposition Yposition Zposition Yrotation Xrotation Zrotation
 JOINT Chest
 {
  OFFSET 0.000000 9.585900 0.002600
  CHANNELS 3 Yrotation Xrotation Zrotation
  JOINT Chest2
  {
   OFFSET 0.000000 9.601200 -0.005300
   CHANNELS 3 Yrotation Xrotation Zrotation
   JOINT Chest3
   {
    OFFSET 0.000000 9.561800 0.000000
    CHANNELS 3 Yrotation Xrotation Zrotation
    JOINT Chest4
    {
     OFFSET 0.000000 9.552100 0.000000
     CHANNELS 3 Yrotation Xrotation Zrotation
     JOINT Neck
     {
      OFFSET 0.000000 14.453000 0.000000
      CHANNELS 3 Yrotation Xrotation Zrotation
      JOINT Head
      {
       OFFSET 0.000000 8.936500 -0.011300
       CHANNELS 3 Yrotation Xrotation Zrotation
       End Site
       {
        OFFSET 0.000000 17.073600 -0.006000
       }
      }
     }
     JOINT RightCollar
     {
      OFFSET -2.921100 9.558500 0.000000
      CHANNELS 3 Yrotation Xrotation Zrotation
      JOINT RightShoulder
      {
       OFFSET -13.519700 0.000000 0.000000
       CHANNELS 3 Yrotation Xrotation Zrotation
       JOINT RightElbow
       {
        OFFSET 0.000000 -29.696600 0.000000
        CHANNELS 3 Yrotation Xrotation Zrotation
        JOINT RightWrist
        {
         OFFSET 0.000000 -24.004700 0.000000
         CHANNELS 3 Yrotation Xrotation Zrotation
         End Site
         {
          OFFSET 0.000000 -17.728500 0.000000
         }
        }
       }
      }
     }
     JOINT LeftCollar
     {
      OFFSET 2.921100 9.558500 0.000000
      CHANNELS 3 Yrotation Xrotation Zrotation
      JOINT LeftShoulder
      {
       OFFSET 13.519700 0.000000 0.000000
       CHANNELS 3 Yrotation Xrotation Zrotation
       JOINT LeftElbow
       {
        OFFSET 0.000000 -29.696600 0.000000
        CHANNELS 3 Yrotation Xrotation Zrotation
        JOINT LeftWrist
        {
         OFFSET 0.000000 -24.004700 0.000000
         CHANNELS 3 Yrotation Xrotation Zrotation
         End Site
         {
          OFFSET 0.000000 -17.728500 0.000000
         }
        }
       }
      }
     }
    }
   }
  }
 }
 JOINT RightHip
 {
  OFFSET -7.771700 -0.012900 -0.001300
  CHANNELS 3 Yrotation Xrotation Zrotation
  JOINT RightKnee
  {
   OFFSET 0.000000 -40.869800 0.001200
   CHANNELS 3 Yrotation Xrotation Zrotation
   JOINT RightAnkle
   {
    OFFSET 0.000000 -39.717900 0.002100
    CHANNELS 3 Yrotation Xrotation Zrotation
    JOINT RightToe
    {
     OFFSET 0.000000 -4.965400 11.033500
     CHANNELS 3 Yrotation Xrotation Zrotation
     End Site
     {
      OFFSET 0.000000 -1.423100 5.872300
     }
    }
   }
  }
 }
 JOINT LeftHip
 {
  OFFSET 7.771700 -0.012900 -0.001300
  CHANNELS 3 Yrotation Xrotation Zrotation
  JOINT LeftKnee
  {
   OFFSET 0.000000 -40.869800 0.001200
   CHANNELS 3 Yrotation Xrotation Zrotation
   JOINT LeftAnkle
   {
    OFFSET 0.000000 -39.717900 0.002100
    CHANNELS 3 Yrotation Xrotation Zrotation
    JOINT LeftToe
    {
     OFFSET 0.000000 -4.965400 11.033500
     CHANNELS 3 Yrotation Xrotation Zrotation
     End Site
     {
      OFFSET 0.000000 -1.423100 5.872300
     }
    }
   }
  }
 }
}
MOTION
Frames: 7
Frame Time: 0.008333
0.000000 85.388000 0.000000 0.000000 -5.767877 0.000000 0.000000 11.653817 0.000000 0.000000 -5.885947 0.000000 0.000000 -0.000000 0.000000 0.000000 -0.000000 0.000000 0.000000 12.528835 0.000000 0.000000 0.711642 0.000000 0.000000 -0.000000 0.000000 0.000000 0.000000 -90.000000 0.000000 -2.309062 0.000000 0.000000 2.309062 0.000000 0.000000 -0.000000 0.000000 0.000000 -0.000000 90.000000 0.000000 -2.309062 0.000000 0.000000 2.309062 0.000000 0.000000 8.520406 0.000000 0.000000 1.905762 0.000000 -0.000000 -4.658285 0.000000 0.000000 -0.000000 0.000000 0.000000 8.520406 0.000000 0.000000 1.905762 0.000000 -0.000000 -4.658285 0.000000 0.000000 -0.000000 0.000000
-239.821312 57.517851 142.428498 176.613198 -30.908175 -1.668667 2.976494 19.048284 3.517087 0.284584 2.300370 0.383182 0.481989 3.792642 0.633929 2.465142 16.468001 3.065887 7.504863 11.837507 -0.639818 14.602006 -13.349664 -4.367973 3.011162 0.150122 -0.678384 -6.621064 -32.172094 -8.284265 -153.340270 -64.590825 133.667706 0.301584 -18.272388 -54.867404 -8.071527 -5.047654 -4.216316 1.971788 -17.101342 5.483310 166.113158 -78.504967 160.333209 -11.148661 1.537404 10.531508 6.158712 -44.763281 -1.914931 -11.591725 67.269227 -16.017014 2.650790 23.866548 4.349376 -0.788920 -15.741794 6.095255 -8.345372 -42.790702 4.302736 31.271834 69.110249 32.104854 -14.424229 4.406562 -5.140721 -0.017177 0.119977 0.003831
-239.818535 57.519221 142.428409 176.614643 -30.919934 -1.677367 2.976601 19.055666 3.527192 0.277131 2.291362 0.387858 0.474621 3.789048 0.637746 2.468448 16.475016 3.061839 7.544270 12.056068 -0.607328 14.661283 -12.923604 -4.316181 3.003626 0.150390 -0.658554 -6.702161 -32.205415 -8.263529 -152.844461 -64.492290 133.265128 0.298472 -18.384340 -54.915046 -8.074422 -5.048378 -4.207250 1.977492 -17.090429 5.486034 166.056933 -78.515715 160.382166 -11.153575 1.563026 10.534449 6.124992 -44.748588 -1.894035 -11.587257 67.264682 -16.005936 2.646535 23.858589 4.322741 -0.783428 -15.733997 6.098023 -8.348690 -42.774654 4.310106 31.256589 69.108412 32.094056 -14.413261 4.397745 -5.155363 -0.014288 0.123998 0.011813
-239.816721 57.520245 142.428638 176.613575 -30.930333 -1.677093 2.963358 19.049727 3.531619 0.271893 2.296989 0.389886 0.471834 3.788360 0.638877 2.450765 16.469296 3.069766 7.599569 12.299502 -0.592311 14.722425 -12.481715 -4.266526 3.012409 0.147379 -0.638129 -6.789583 -32.232903 -8.260343 -151.955743 -64.236160 132.504815 0.236444 -18.499359 -54.950585 -8.051356 -5.040372 -4.222758 1.969926 -17.086157 5.516197 165.951918 -78.518806 160.495025 -11.144807 1.564542 10.542966 6.107409 -44.734109 -1.882672 -11.578531 67.262679 -15.997206 2.636746 23.841425 4.305635 -0.777208 -15.718849 6.099777 -8.336198 -42.758501 4.299461 31.240012 69.101945 32.087018 -14.398557 4.380708 -5.177092 -0.016373 0.128512 0.018198
-239.814843 57.521614 142.427928 176.609199 -30.948673 -1.673381 2.946901 19.059604 3.533555 0.272165 2.297515 0.391885 0.471014 3.787792 0.641275 2.431583 16.465948 3.078680 7.655115 12.553330 -0.578404 14.780389 -12.019263 -4.214601 3.037171 0.147431 -0.647621 -6.955833 -32.277843 -8.207140 -150.698070 -63.834938 131.413796 0.134456 -18.611913 -54.981746 -8.045442 -5.055863 -4.217093 2.000020 -17.066066 5.498312 165.899551 -78.526913 160.541042 -11.142675 1.565698 10.549227 6.086932 -44.710736 -1.867665 -11.571625 67.259929 -15.996568 2.635342 23.821118 4.295563 -0.772524 -15.702343 6.097898 -8.328301 -42.736670 4.290275 31.237439 69.101107 32.086537 -14.386044 4.370871 -5.177638 -0.022140 0.130212 0.012722
-239.813295 57.522424 142.427614 176.605120 -30.965766 -1.666524 2.933070 19.070005 3.535819 0.282781 2.303439 0.383236 0.458486 3.778608 0.654019 2.431519 16.473325 3.072261 7.696879 12.808637 -0.541441 14.834216 -11.529450 -4.156693 3.046552 0.130252 -0.638299 -7.167796 -32.329915 -8.136456 -149.143456 -63.310003 130.047219 0.001041 -18.711260 -54.999097 -8.042961 -5.065067 -4.216926 2.006074 -17.063955 5.504118 165.831696 -78.538766 160.604562 -11.140472 1.565783 10.550550 6.083297 -44.691369 -1.865950 -11.579883 67.260067 -16.004081 2.635298 23.803560 4.287892 -0.769798 -15.688300 6.096777 -8.321693 -42.716278 4.279198 31.244951 69.097600 32.093455 -14.376758 4.357736 -5.183569 -0.029334 0.139728 0.015565
-239.811285 57.522448 142.428137 176.595599 -30.979850 -1.658760 2.927652 19.071680 3.542869 0.281079 2.303900 0.384348 0.452973 3.778851 0.656275 2.432885 16.481484 3.065792 7.738275 13.080449 -0.500346 14.885617 -11.006717 -4.092464 3.056858 0.108174 -0.629084 -7.413647 -32.388576 -8.050441 -147.379504 -62.690203 128.467900 -0.159113 -18.800164 -54.996538 -8.039942 -5.076964 -4.207538 2.015101 -17.061233 5.497273 165.738121 -78.551062 160.687581 -11.135664 1.570152 10.556108 6.082011 -44.674775 -1.860087 -11.578670 67.258853 -16.006863 2.629349 23.777717 4.290616 -0.765712 -15.664021 6.087860 -8.314041 -42.701268 4.274426 31.250433 69.099613 32.099428 -14.372196 4.342479 -5.199166 -0.031856 0.142911 0.020519
